<mxfile host="Electron" modified="2023-06-15T16:30:34.885Z" agent="Mozilla/5.0 (Windows NT 10.0; Win64; x64) AppleWebKit/537.36 (KHTML, like Gecko) draw.io/21.2.8 Chrome/112.0.5615.165 Electron/24.2.0 Safari/537.36" etag="T9qYEqhI0ak4iCNTuJkx" version="21.2.8" type="device">
  <diagram name="Страница 1" id="irO2Y7mBhHR0LyVcGbAa">
    <mxGraphModel dx="1909" dy="1216" grid="1" gridSize="10" guides="1" tooltips="1" connect="1" arrows="1" fold="1" page="1" pageScale="1" pageWidth="827" pageHeight="1169" math="0" shadow="0">
      <root>
        <mxCell id="0" />
        <mxCell id="1" parent="0" />
        <mxCell id="-EWqFjiU3KzPvvDu-8Q--9" value="" style="edgeStyle=orthogonalEdgeStyle;rounded=0;orthogonalLoop=1;jettySize=auto;html=1;strokeWidth=5;" edge="1" parent="1" source="-EWqFjiU3KzPvvDu-8Q--1" target="-EWqFjiU3KzPvvDu-8Q--2">
          <mxGeometry relative="1" as="geometry" />
        </mxCell>
        <mxCell id="-EWqFjiU3KzPvvDu-8Q--10" style="edgeStyle=orthogonalEdgeStyle;rounded=0;orthogonalLoop=1;jettySize=auto;html=1;exitX=1;exitY=1;exitDx=0;exitDy=0;entryX=1;entryY=0.5;entryDx=0;entryDy=0;strokeWidth=5;" edge="1" parent="1" source="-EWqFjiU3KzPvvDu-8Q--1" target="-EWqFjiU3KzPvvDu-8Q--3">
          <mxGeometry relative="1" as="geometry">
            <mxPoint x="550" y="69.5" as="targetPoint" />
            <Array as="points">
              <mxPoint x="442" y="100" />
              <mxPoint x="510" y="100" />
              <mxPoint x="510" y="420" />
            </Array>
          </mxGeometry>
        </mxCell>
        <mxCell id="-EWqFjiU3KzPvvDu-8Q--11" style="edgeStyle=orthogonalEdgeStyle;rounded=0;orthogonalLoop=1;jettySize=auto;html=1;exitX=0;exitY=0.5;exitDx=0;exitDy=0;entryX=0.5;entryY=0;entryDx=0;entryDy=0;strokeWidth=5;" edge="1" parent="1" source="-EWqFjiU3KzPvvDu-8Q--1" target="-EWqFjiU3KzPvvDu-8Q--5">
          <mxGeometry relative="1" as="geometry" />
        </mxCell>
        <mxCell id="-EWqFjiU3KzPvvDu-8Q--12" style="edgeStyle=orthogonalEdgeStyle;rounded=0;orthogonalLoop=1;jettySize=auto;html=1;exitX=1;exitY=0;exitDx=0;exitDy=0;entryX=1;entryY=0.5;entryDx=0;entryDy=0;strokeWidth=5;" edge="1" parent="1" source="-EWqFjiU3KzPvvDu-8Q--1" target="-EWqFjiU3KzPvvDu-8Q--7">
          <mxGeometry relative="1" as="geometry">
            <Array as="points">
              <mxPoint x="442" y="40" />
              <mxPoint x="740" y="40" />
              <mxPoint x="740" y="920" />
            </Array>
          </mxGeometry>
        </mxCell>
        <mxCell id="-EWqFjiU3KzPvvDu-8Q--13" style="edgeStyle=orthogonalEdgeStyle;rounded=0;orthogonalLoop=1;jettySize=auto;html=1;exitX=1;exitY=1;exitDx=0;exitDy=0;entryX=0;entryY=1;entryDx=0;entryDy=0;strokeWidth=5;" edge="1" parent="1" source="-EWqFjiU3KzPvvDu-8Q--1" target="-EWqFjiU3KzPvvDu-8Q--8">
          <mxGeometry relative="1" as="geometry">
            <Array as="points">
              <mxPoint x="310" y="98" />
              <mxPoint x="310" y="1138" />
            </Array>
          </mxGeometry>
        </mxCell>
        <mxCell id="-EWqFjiU3KzPvvDu-8Q--26" style="edgeStyle=orthogonalEdgeStyle;rounded=0;orthogonalLoop=1;jettySize=auto;html=1;exitX=1;exitY=0.5;exitDx=0;exitDy=0;entryX=1;entryY=0.5;entryDx=0;entryDy=0;strokeWidth=5;" edge="1" parent="1" source="-EWqFjiU3KzPvvDu-8Q--1" target="-EWqFjiU3KzPvvDu-8Q--6">
          <mxGeometry relative="1" as="geometry">
            <Array as="points">
              <mxPoint x="660" y="70" />
              <mxPoint x="660" y="760" />
            </Array>
          </mxGeometry>
        </mxCell>
        <mxCell id="-EWqFjiU3KzPvvDu-8Q--1" value="&lt;font style=&quot;font-size: 30px;&quot;&gt;1&lt;/font&gt;" style="ellipse;whiteSpace=wrap;html=1;" vertex="1" parent="1">
          <mxGeometry x="374" y="30" width="80" height="80" as="geometry" />
        </mxCell>
        <mxCell id="-EWqFjiU3KzPvvDu-8Q--14" value="" style="edgeStyle=orthogonalEdgeStyle;rounded=0;orthogonalLoop=1;jettySize=auto;html=1;fillColor=#d5e8d4;strokeColor=#82b366;strokeWidth=5;" edge="1" parent="1" source="-EWqFjiU3KzPvvDu-8Q--2" target="-EWqFjiU3KzPvvDu-8Q--3">
          <mxGeometry relative="1" as="geometry" />
        </mxCell>
        <mxCell id="-EWqFjiU3KzPvvDu-8Q--15" style="edgeStyle=orthogonalEdgeStyle;rounded=0;orthogonalLoop=1;jettySize=auto;html=1;exitX=0;exitY=0.5;exitDx=0;exitDy=0;entryX=0.091;entryY=0.242;entryDx=0;entryDy=0;entryPerimeter=0;strokeWidth=5;fillColor=#d5e8d4;strokeColor=#82b366;" edge="1" parent="1" source="-EWqFjiU3KzPvvDu-8Q--2" target="-EWqFjiU3KzPvvDu-8Q--8">
          <mxGeometry relative="1" as="geometry">
            <Array as="points">
              <mxPoint x="340" y="240" />
              <mxPoint x="340" y="1089" />
            </Array>
          </mxGeometry>
        </mxCell>
        <mxCell id="-EWqFjiU3KzPvvDu-8Q--2" value="&lt;font style=&quot;font-size: 30px;&quot;&gt;2&lt;/font&gt;" style="ellipse;whiteSpace=wrap;html=1;" vertex="1" parent="1">
          <mxGeometry x="374" y="200" width="80" height="80" as="geometry" />
        </mxCell>
        <mxCell id="-EWqFjiU3KzPvvDu-8Q--16" value="" style="edgeStyle=orthogonalEdgeStyle;rounded=0;orthogonalLoop=1;jettySize=auto;html=1;strokeWidth=5;fillColor=#ffe6cc;strokeColor=#d79b00;" edge="1" parent="1" source="-EWqFjiU3KzPvvDu-8Q--3" target="-EWqFjiU3KzPvvDu-8Q--4">
          <mxGeometry relative="1" as="geometry" />
        </mxCell>
        <mxCell id="-EWqFjiU3KzPvvDu-8Q--3" value="&lt;font style=&quot;font-size: 30px;&quot;&gt;3&lt;/font&gt;" style="ellipse;whiteSpace=wrap;html=1;" vertex="1" parent="1">
          <mxGeometry x="374" y="380" width="80" height="80" as="geometry" />
        </mxCell>
        <mxCell id="-EWqFjiU3KzPvvDu-8Q--17" style="edgeStyle=orthogonalEdgeStyle;rounded=0;orthogonalLoop=1;jettySize=auto;html=1;exitX=1;exitY=0.5;exitDx=0;exitDy=0;entryX=0.5;entryY=0;entryDx=0;entryDy=0;fillColor=#6a00ff;strokeColor=#3700CC;strokeWidth=5;" edge="1" parent="1" source="-EWqFjiU3KzPvvDu-8Q--4" target="-EWqFjiU3KzPvvDu-8Q--6">
          <mxGeometry relative="1" as="geometry" />
        </mxCell>
        <mxCell id="-EWqFjiU3KzPvvDu-8Q--18" style="edgeStyle=orthogonalEdgeStyle;rounded=0;orthogonalLoop=1;jettySize=auto;html=1;exitX=0;exitY=0.5;exitDx=0;exitDy=0;entryX=1;entryY=0;entryDx=0;entryDy=0;fillColor=#6a00ff;strokeColor=#3700CC;strokeWidth=5;" edge="1" parent="1" source="-EWqFjiU3KzPvvDu-8Q--4" target="-EWqFjiU3KzPvvDu-8Q--5">
          <mxGeometry relative="1" as="geometry" />
        </mxCell>
        <mxCell id="-EWqFjiU3KzPvvDu-8Q--4" value="&lt;font style=&quot;font-size: 30px;&quot;&gt;4&lt;/font&gt;" style="ellipse;whiteSpace=wrap;html=1;" vertex="1" parent="1">
          <mxGeometry x="374" y="560" width="80" height="80" as="geometry" />
        </mxCell>
        <mxCell id="-EWqFjiU3KzPvvDu-8Q--19" style="edgeStyle=orthogonalEdgeStyle;rounded=0;orthogonalLoop=1;jettySize=auto;html=1;exitX=0.5;exitY=1;exitDx=0;exitDy=0;entryX=0;entryY=0.5;entryDx=0;entryDy=0;fillColor=#e3c800;strokeColor=#B09500;strokeWidth=5;" edge="1" parent="1" source="-EWqFjiU3KzPvvDu-8Q--5" target="-EWqFjiU3KzPvvDu-8Q--7">
          <mxGeometry relative="1" as="geometry" />
        </mxCell>
        <mxCell id="-EWqFjiU3KzPvvDu-8Q--5" value="&lt;font style=&quot;font-size: 30px;&quot;&gt;5&lt;/font&gt;" style="ellipse;whiteSpace=wrap;html=1;" vertex="1" parent="1">
          <mxGeometry x="200" y="720" width="80" height="80" as="geometry" />
        </mxCell>
        <mxCell id="-EWqFjiU3KzPvvDu-8Q--20" style="edgeStyle=orthogonalEdgeStyle;rounded=0;orthogonalLoop=1;jettySize=auto;html=1;exitX=0.5;exitY=1;exitDx=0;exitDy=0;fillColor=#e3c800;strokeColor=#B09500;strokeWidth=5;" edge="1" parent="1" source="-EWqFjiU3KzPvvDu-8Q--6" target="-EWqFjiU3KzPvvDu-8Q--7">
          <mxGeometry relative="1" as="geometry" />
        </mxCell>
        <mxCell id="-EWqFjiU3KzPvvDu-8Q--6" value="&lt;font style=&quot;font-size: 30px;&quot;&gt;6&lt;/font&gt;" style="ellipse;whiteSpace=wrap;html=1;" vertex="1" parent="1">
          <mxGeometry x="540" y="720" width="80" height="80" as="geometry" />
        </mxCell>
        <mxCell id="-EWqFjiU3KzPvvDu-8Q--7" value="&lt;font style=&quot;font-size: 30px;&quot;&gt;7&lt;/font&gt;" style="ellipse;whiteSpace=wrap;html=1;" vertex="1" parent="1">
          <mxGeometry x="374" y="880" width="80" height="80" as="geometry" />
        </mxCell>
        <mxCell id="-EWqFjiU3KzPvvDu-8Q--8" value="&lt;font style=&quot;font-size: 30px;&quot;&gt;8&lt;/font&gt;" style="ellipse;whiteSpace=wrap;html=1;" vertex="1" parent="1">
          <mxGeometry x="374" y="1070" width="80" height="80" as="geometry" />
        </mxCell>
        <mxCell id="-EWqFjiU3KzPvvDu-8Q--21" value="&lt;font style=&quot;font-size: 30px;&quot;&gt;1&lt;/font&gt;" style="ellipse;whiteSpace=wrap;html=1;" vertex="1" parent="1">
          <mxGeometry x="1010" y="105" width="80" height="80" as="geometry" />
        </mxCell>
        <mxCell id="-EWqFjiU3KzPvvDu-8Q--22" value="&lt;font style=&quot;font-size: 30px;&quot;&gt;2&lt;/font&gt;" style="ellipse;whiteSpace=wrap;html=1;" vertex="1" parent="1">
          <mxGeometry x="1011" y="225" width="80" height="80" as="geometry" />
        </mxCell>
        <mxCell id="-EWqFjiU3KzPvvDu-8Q--23" value="&lt;font style=&quot;font-size: 30px;&quot;&gt;3&lt;/font&gt;" style="ellipse;whiteSpace=wrap;html=1;" vertex="1" parent="1">
          <mxGeometry x="1011" y="345" width="80" height="80" as="geometry" />
        </mxCell>
        <mxCell id="-EWqFjiU3KzPvvDu-8Q--24" value="&lt;font style=&quot;font-size: 30px;&quot;&gt;4&lt;/font&gt;" style="ellipse;whiteSpace=wrap;html=1;" vertex="1" parent="1">
          <mxGeometry x="1011" y="455" width="80" height="80" as="geometry" />
        </mxCell>
        <mxCell id="-EWqFjiU3KzPvvDu-8Q--25" value="&lt;font style=&quot;font-size: 30px;&quot;&gt;8&lt;/font&gt;" style="ellipse;whiteSpace=wrap;html=1;" vertex="1" parent="1">
          <mxGeometry x="1120" y="345" width="80" height="80" as="geometry" />
        </mxCell>
        <mxCell id="-EWqFjiU3KzPvvDu-8Q--27" value="&lt;font style=&quot;font-size: 30px;&quot;&gt;5&lt;/font&gt;" style="ellipse;whiteSpace=wrap;html=1;" vertex="1" parent="1">
          <mxGeometry x="1011" y="555" width="80" height="80" as="geometry" />
        </mxCell>
        <mxCell id="-EWqFjiU3KzPvvDu-8Q--28" value="&lt;font style=&quot;font-size: 30px;&quot;&gt;6&lt;/font&gt;" style="ellipse;whiteSpace=wrap;html=1;" vertex="1" parent="1">
          <mxGeometry x="1120" y="555" width="80" height="80" as="geometry" />
        </mxCell>
        <mxCell id="-EWqFjiU3KzPvvDu-8Q--29" value="&lt;font style=&quot;font-size: 30px;&quot;&gt;7&lt;/font&gt;" style="ellipse;whiteSpace=wrap;html=1;" vertex="1" parent="1">
          <mxGeometry x="1011" y="655" width="80" height="80" as="geometry" />
        </mxCell>
        <mxCell id="-EWqFjiU3KzPvvDu-8Q--32" value="" style="endArrow=none;html=1;rounded=0;" edge="1" parent="1">
          <mxGeometry width="50" height="50" relative="1" as="geometry">
            <mxPoint x="960" y="205" as="sourcePoint" />
            <mxPoint x="1280" y="205" as="targetPoint" />
          </mxGeometry>
        </mxCell>
        <mxCell id="-EWqFjiU3KzPvvDu-8Q--33" value="" style="endArrow=none;html=1;rounded=0;fontStyle=1" edge="1" parent="1">
          <mxGeometry width="50" height="50" relative="1" as="geometry">
            <mxPoint x="960" y="325" as="sourcePoint" />
            <mxPoint x="1280" y="325" as="targetPoint" />
          </mxGeometry>
        </mxCell>
        <mxCell id="-EWqFjiU3KzPvvDu-8Q--34" value="" style="endArrow=none;html=1;rounded=0;" edge="1" parent="1">
          <mxGeometry width="50" height="50" relative="1" as="geometry">
            <mxPoint x="970" y="445" as="sourcePoint" />
            <mxPoint x="1290" y="445" as="targetPoint" />
          </mxGeometry>
        </mxCell>
        <mxCell id="-EWqFjiU3KzPvvDu-8Q--35" value="" style="endArrow=none;html=1;rounded=0;" edge="1" parent="1">
          <mxGeometry width="50" height="50" relative="1" as="geometry">
            <mxPoint x="971" y="545" as="sourcePoint" />
            <mxPoint x="1291" y="545" as="targetPoint" />
          </mxGeometry>
        </mxCell>
        <mxCell id="-EWqFjiU3KzPvvDu-8Q--36" value="" style="endArrow=none;html=1;rounded=0;" edge="1" parent="1">
          <mxGeometry width="50" height="50" relative="1" as="geometry">
            <mxPoint x="971" y="645" as="sourcePoint" />
            <mxPoint x="1291" y="645" as="targetPoint" />
          </mxGeometry>
        </mxCell>
      </root>
    </mxGraphModel>
  </diagram>
</mxfile>
